<svg xmlns="http://www.w3.org/2000/svg" width="3264" height="2448" viewBox="0 0 3264 2448" version="1.1">
	<path d="M 1134 980.264 C 1132.625 980.885, 1116.200 988.558, 1097.500 997.316 C 1078.800 1006.074, 1056.300 1016.496, 1047.500 1020.477 C 1030.940 1027.969, 1000.824 1042.386, 981.560 1052.046 C 963.410 1061.146, 963.657 1064.315, 983.277 1074.120 C 990 1077.479, 995.624 1080.338, 995.776 1080.474 C 995.928 1080.609, 996.263 1090.235, 996.519 1101.865 L 996.986 1123.010 993.266 1127.128 C 988.663 1132.222, 988.171 1137.424, 991.913 1141.408 L 994.281 1143.928 992.562 1155.214 C 991.616 1161.421, 990.385 1168.916, 989.826 1171.869 C 988.416 1179.310, 989.278 1179.975, 1000.479 1180.097 C 1007.396 1180.171, 1009.635 1179.851, 1010.503 1178.665 C 1011.700 1177.029, 1011.447 1174.046, 1008.564 1155.746 C 1006.915 1145.277, 1006.921 1144.918, 1008.804 1142.246 C 1009.867 1140.736, 1011.054 1138.480, 1011.441 1137.234 C 1012.388 1134.184, 1010.496 1128.814, 1007.471 1125.973 C 1005.023 1123.673, 1005 1123.487, 1005 1105.885 C 1005 1094.482, 1005.379 1087.884, 1006.057 1087.465 C 1007.783 1086.398, 1011.006 1087.646, 1020.262 1092.965 C 1025.081 1095.734, 1029.581 1097.980, 1030.262 1097.955 C 1030.943 1097.930, 1033.131 1095.296, 1035.124 1092.102 C 1039.298 1085.412, 1042.637 1082.654, 1052.783 1077.517 C 1083.312 1062.061, 1158.610 1058.675, 1206.320 1070.613 C 1226.698 1075.712, 1238.798 1082.917, 1246.947 1094.803 C 1248.193 1096.620, 1249.726 1097.968, 1250.356 1097.800 C 1250.985 1097.632, 1264.663 1090.842, 1280.750 1082.711 C 1299.929 1073.019, 1310.546 1067.097, 1311.583 1065.513 C 1313.720 1062.252, 1312.671 1059.594, 1308.206 1056.956 C 1304.717 1054.896, 1242.302 1025, 1241.489 1025 C 1241.280 1025, 1234.968 1022.075, 1227.462 1018.500 C 1219.956 1014.925, 1213.647 1012, 1213.443 1012 C 1213.238 1012, 1208.442 1009.722, 1202.785 1006.938 C 1190.847 1001.062, 1154.268 983.901, 1147.474 980.989 C 1142.346 978.791, 1137.804 978.546, 1134 980.264 M 1104.500 1083.513 C 1082.545 1086.067, 1068.977 1089.398, 1058.697 1094.757 C 1054.387 1097.004, 1051.364 1099.328, 1050.447 1101.102 C 1049.284 1103.352, 1049 1109.483, 1049 1132.391 C 1049 1148.061, 1049.365 1161.108, 1049.812 1161.384 C 1050.259 1161.660, 1057.121 1159.679, 1065.062 1156.982 C 1089.507 1148.679, 1107.840 1146, 1140.213 1146 C 1170.585 1146, 1194.169 1149.559, 1216.653 1157.535 C 1223.343 1159.908, 1229.083 1161.584, 1229.408 1161.258 C 1229.734 1160.933, 1230 1147.282, 1230 1130.922 L 1230 1101.178 1226.857 1098.534 C 1214.067 1087.771, 1182.083 1081.935, 1137 1082.137 C 1125.175 1082.190, 1110.550 1082.810, 1104.500 1083.513 M 1677.770 1168.483 C 1685.893 1175.787, 1686 1176.248, 1686 1204.088 L 1686 1228.374 1683.250 1225.780 C 1679.471 1222.215, 1673.920 1220.108, 1665.064 1218.876 C 1645.990 1216.223, 1625.486 1224.228, 1609.568 1240.543 C 1601.943 1248.357, 1594.101 1263.042, 1590.899 1275.500 C 1588.456 1285.005, 1587.952 1303.531, 1589.905 1312 C 1597.637 1345.518, 1624.761 1369.843, 1656.500 1371.722 C 1668.153 1372.412, 1675.130 1370.903, 1683.431 1365.896 L 1690.074 1361.889 1695.287 1364.421 C 1698.709 1366.083, 1703.593 1367.301, 1709.500 1367.968 C 1720.627 1369.224, 1736.693 1369.306, 1737.431 1368.112 C 1737.733 1367.624, 1735.996 1365.599, 1733.571 1363.612 C 1731.147 1361.625, 1728.223 1358.479, 1727.074 1356.620 C 1725.005 1353.271, 1724.988 1352.644, 1725.243 1287.931 L 1725.500 1222.622 1729.422 1226.061 C 1731.578 1227.952, 1734.616 1231.255, 1736.172 1233.400 L 1739 1237.300 1739.006 1268.900 C 1739.012 1304.137, 1739.999 1314.199, 1744.765 1327.670 C 1754.022 1353.827, 1773.033 1369.315, 1798.587 1371.515 C 1813.169 1372.771, 1824.648 1369.151, 1834.093 1360.316 L 1838.920 1355.801 1843.280 1359.373 C 1851.617 1366.205, 1857.238 1368.008, 1872.319 1368.690 C 1889.222 1369.454, 1890.506 1369.067, 1885.318 1364.775 C 1883.182 1363.009, 1879.987 1359.814, 1878.218 1357.674 L 1875 1353.784 1875 1294.795 L 1875 1235.806 1881.664 1228.903 L 1888.328 1222 1854.931 1222 L 1821.534 1222 1826.694 1226.513 C 1836.614 1235.191, 1836.002 1231.599, 1835.983 1281.118 C 1835.964 1328.169, 1835.505 1333.360, 1830.447 1343.697 C 1825.738 1353.323, 1814.132 1361.224, 1804.807 1361.152 C 1790.481 1361.041, 1781.812 1346.119, 1779.070 1316.851 C 1778.485 1310.608, 1778.005 1286.713, 1778.003 1263.750 L 1778 1222 1751.500 1222 L 1725 1222 1725 1193 L 1725 1164 1698.892 1164 L 1672.784 1164 1677.770 1168.483 M 2124.059 1167.566 C 2119.277 1171.886, 2117.623 1176.444, 2118.221 1183.654 C 2118.718 1189.643, 2120.518 1192.675, 2126.408 1197.442 C 2129.795 1200.184, 2130.890 1200.500, 2137 1200.500 C 2143.110 1200.500, 2144.205 1200.184, 2147.592 1197.442 C 2153.538 1192.630, 2155.281 1189.659, 2155.795 1183.456 C 2156.166 1178.990, 2155.784 1176.808, 2153.944 1172.881 C 2150.573 1165.683, 2147.293 1164, 2136.635 1164 C 2128.147 1164, 2127.941 1164.058, 2124.059 1167.566 M 2164.104 1167.288 C 2166.086 1169.054, 2168.899 1172.117, 2170.354 1174.094 L 2173 1177.689 2173 1265.500 L 2173 1353.311 2170.515 1356.569 C 2165.368 1363.317, 2165.077 1363.448, 2161.914 1360.418 C 2155.779 1354.540, 2156 1357.301, 2156 1286.599 L 2156 1222 2129.818 1222 L 2103.635 1222 2109.269 1227.250 C 2118.476 1235.831, 2118 1232.110, 2118 1295.567 C 2118 1358.757, 2118.533 1354.571, 2109.431 1362.889 C 2106.498 1365.570, 2104.375 1368.042, 2104.715 1368.382 C 2105.750 1369.417, 2178.874 1369.054, 2188.500 1367.967 C 2194.650 1367.272, 2199.155 1366.118, 2202.727 1364.323 L 2207.954 1361.696 2211.727 1364.301 C 2219.194 1369.457, 2224.972 1371.354, 2234.500 1371.776 C 2246.621 1372.313, 2256.164 1370.199, 2267.997 1364.357 C 2275.918 1360.446, 2278.906 1358.240, 2285.997 1351.071 C 2294.867 1342.104, 2299.526 1335.225, 2303.660 1324.989 C 2306.377 1318.264, 2309 1305.944, 2309 1299.912 C 2309 1297.760, 2309.450 1296, 2310 1296 C 2310.550 1296, 2311 1298.049, 2311 1300.553 C 2311 1319.256, 2323.837 1343.012, 2341.066 1356.193 C 2354.410 1366.402, 2366.547 1370.778, 2384.097 1371.708 C 2401.550 1372.632, 2415.573 1368.268, 2429.869 1357.464 C 2436.206 1352.676, 2446.880 1341.007, 2450.284 1335.147 L 2452.068 1332.076 2448.074 1330.038 C 2445.877 1328.917, 2443.687 1328, 2443.206 1328 C 2442.726 1328, 2440.624 1330.481, 2438.535 1333.514 C 2427.099 1350.118, 2409.180 1359.763, 2391.591 1358.783 C 2380.452 1358.163, 2374.580 1355.444, 2367.093 1347.441 C 2361.390 1341.344, 2354.009 1328.658, 2355.371 1327.295 C 2355.737 1326.929, 2361.091 1325.597, 2367.268 1324.335 C 2383.145 1321.090, 2393.820 1317.600, 2406.537 1311.495 C 2418.787 1305.616, 2424.627 1301.243, 2430.314 1293.692 C 2435.233 1287.162, 2436.880 1283.207, 2438.514 1274 C 2441.504 1257.157, 2436.749 1242.253, 2425.021 1231.709 C 2407.265 1215.745, 2378.769 1213.752, 2353 1226.672 C 2345.055 1230.656, 2341.928 1232.996, 2333.895 1240.968 C 2319.854 1254.902, 2312.806 1269.168, 2311.329 1286.640 C 2310.634 1294.861, 2309 1297.672, 2309 1290.647 C 2309 1281.294, 2306.131 1270.775, 2300.371 1259.007 C 2295.443 1248.940, 2293.722 1246.499, 2286.619 1239.500 C 2274.753 1227.808, 2262.563 1221.252, 2248.491 1218.994 C 2236.896 1217.133, 2221.896 1219.692, 2216.172 1224.509 C 2214.544 1225.879, 2212.939 1227, 2212.606 1227 C 2212.273 1227, 2212 1212.825, 2212 1195.500 L 2212 1164 2186.250 1164.038 L 2160.500 1164.075 2164.104 1167.288 M 1469.694 1169.513 C 1479.171 1177.804, 1479 1177.139, 1479 1205.687 C 1479 1233.364, 1479.561 1236.975, 1485.180 1245.458 C 1486.954 1248.136, 1490.286 1251.652, 1492.584 1253.273 L 1496.764 1256.219 1490.039 1262.859 C 1484.467 1268.362, 1482.944 1270.605, 1481.157 1275.944 C 1479.108 1282.067, 1479 1284.177, 1479 1318.244 C 1479 1347.063, 1478.725 1354.632, 1477.597 1356.813 C 1476.825 1358.306, 1473.675 1361.909, 1470.597 1364.820 C 1467.518 1367.731, 1465 1370.313, 1465 1370.557 C 1465 1370.800, 1493.575 1371, 1528.500 1371 C 1579.722 1371, 1592 1370.750, 1592 1369.708 C 1592 1368.161, 1589.220 1345.851, 1588.458 1341.283 L 1587.922 1338.066 1579.819 1344.074 C 1561.755 1357.468, 1557.013 1359.117, 1534.750 1359.753 L 1518 1360.231 1518 1314.515 L 1518 1268.800 1521.545 1265.255 L 1525.090 1261.710 1533.795 1262.315 C 1540.083 1262.753, 1544.583 1263.755, 1550 1265.926 C 1554.125 1267.579, 1558.063 1268.947, 1558.750 1268.966 C 1559.685 1268.991, 1560 1265.852, 1560 1256.500 C 1560 1248.192, 1559.637 1244, 1558.917 1244 C 1558.321 1244, 1554.383 1245.384, 1550.167 1247.076 C 1544.509 1249.346, 1540.219 1250.301, 1533.795 1250.721 L 1525.090 1251.290 1521.545 1247.745 L 1518 1244.200 1518 1220.310 C 1518 1192.839, 1517.195 1188.039, 1511.044 1178.828 L 1507.152 1173 1512.326 1173.510 C 1515.172 1173.790, 1524.475 1174.486, 1533 1175.056 C 1557.075 1176.667, 1566.455 1179.994, 1578.298 1191.125 C 1581.663 1194.288, 1585.223 1197.087, 1586.208 1197.344 C 1587.194 1197.602, 1588.001 1197.742, 1588.001 1197.656 C 1588.002 1197.570, 1588.901 1190.525, 1590 1182 C 1591.099 1173.475, 1591.998 1166.162, 1591.999 1165.750 C 1591.999 1165.338, 1563.320 1165, 1528.267 1165 L 1464.534 1165 1469.694 1169.513 M 1878.455 1167.250 C 1878.727 1168.487, 1879.659 1175.561, 1880.527 1182.969 C 1881.395 1190.377, 1882.251 1196.584, 1882.429 1196.762 C 1882.607 1196.941, 1885.960 1194.674, 1889.880 1191.725 C 1904.066 1181.054, 1913.588 1176.544, 1923.500 1175.805 L 1927.500 1175.507 1927.784 1263.003 C 1927.941 1311.127, 1927.790 1352.059, 1927.449 1353.964 C 1926.995 1356.502, 1924.981 1359.244, 1919.921 1364.214 L 1913.013 1371 1947.084 1371 L 1981.156 1371 1974.231 1364.250 C 1969.309 1359.451, 1967.118 1356.524, 1966.653 1354.125 C 1966.294 1352.269, 1966 1315.036, 1966 1271.386 C 1966 1195.454, 1965.917 1191.802, 1964.074 1186.952 C 1963.014 1184.163, 1960.944 1180.304, 1959.473 1178.375 C 1958.002 1176.447, 1956.956 1174.732, 1957.149 1174.565 C 1958.083 1173.758, 1978.949 1177.383, 1983.789 1179.194 C 1988.974 1181.134, 2001.994 1189.332, 2008.376 1194.675 C 2009.957 1195.999, 2011.426 1196.907, 2011.640 1196.693 C 2011.924 1196.410, 2015.991 1167.068, 2015.999 1165.250 C 2015.999 1165.112, 1984.941 1165, 1946.981 1165 L 1877.962 1165 1878.455 1167.250 M 1130 1178.623 C 1107.790 1182.946, 1087.988 1202.027, 1082.954 1223.957 C 1081.345 1230.966, 1081.330 1243.835, 1082.921 1251.500 C 1087.335 1272.754, 1105.943 1291.129, 1127.605 1295.622 C 1152.440 1300.773, 1177.130 1290.339, 1191.043 1268.811 C 1198.837 1256.753, 1201.996 1238.470, 1198.612 1225 C 1193.365 1204.110, 1176.780 1186.393, 1157 1180.547 C 1151.472 1178.913, 1134.663 1177.715, 1130 1178.623 M 997.831 1219.048 C 974.821 1222.808, 959.960 1235.700, 954.508 1256.632 C 949.171 1277.121, 958.390 1299.195, 977.008 1310.505 C 992.289 1319.787, 1014.193 1319.221, 1029.572 1309.146 C 1054.206 1293.008, 1059.798 1262.208, 1042.255 1239.286 C 1034.558 1229.228, 1024.529 1222.873, 1011.971 1220.095 C 1003.790 1218.286, 1002.899 1218.220, 997.831 1219.048 M 2062 1219.354 C 2054.580 1221.058, 2047.473 1224.870, 2041.201 1230.509 L 2035.992 1235.193 2030.439 1230.118 C 2022.874 1223.205, 2018.420 1222, 2000.422 1222 L 1986.207 1222 1993.103 1228.897 L 2000 1235.793 2000 1294.700 L 2000 1353.606 1997.002 1357.683 C 1995.353 1359.925, 1992.419 1362.968, 1990.483 1364.445 C 1988.547 1365.922, 1987.223 1367.551, 1987.540 1368.065 C 1988.151 1369.053, 2051.241 1369.426, 2052.219 1368.448 C 2052.522 1368.145, 2050.304 1365.563, 2047.289 1362.712 C 2044.274 1359.860, 2041.175 1356.306, 2040.403 1354.813 C 2039.263 1352.609, 2039.001 1344.161, 2039.008 1309.800 C 2039.015 1266.209, 2039.497 1259.166, 2043.155 1249.213 C 2047.031 1238.667, 2060.032 1229, 2070.342 1229 C 2079.026 1229, 2091.277 1242.299, 2093.498 1254.136 C 2094.838 1261.283, 2095.266 1261.171, 2105.470 1251.020 C 2110.712 1245.806, 2115 1241.219, 2115 1240.827 C 2115 1238.798, 2103.343 1227.930, 2098.292 1225.250 C 2087.241 1219.387, 2072.373 1216.972, 2062 1219.354 M 1264.407 1220.468 C 1250.023 1223.990, 1236.615 1235.754, 1231.132 1249.664 C 1224.210 1267.226, 1227.638 1287.595, 1239.790 1301.111 C 1249.382 1311.780, 1261.738 1317.106, 1277 1317.148 C 1287.545 1317.178, 1295.635 1314.776, 1304.549 1308.968 C 1315.005 1302.156, 1321.562 1293.162, 1324.927 1281.020 C 1329.817 1263.375, 1325.407 1247.172, 1312.110 1233.930 C 1299.370 1221.244, 1281.657 1216.245, 1264.407 1220.468 M 1650.118 1231.628 C 1624.288 1244.500, 1616.477 1309.424, 1636.623 1343.801 C 1647.854 1362.964, 1665.033 1366.668, 1677.692 1352.655 C 1685.137 1344.415, 1685.426 1342.923, 1685.827 1310.634 C 1686.411 1263.516, 1683.668 1246.721, 1673.663 1236.162 C 1666.586 1228.694, 1658.955 1227.225, 1650.118 1231.628 M 2230.252 1231.104 C 2223.099 1234.645, 2218.297 1241.999, 2214.772 1254.808 C 2212.840 1261.827, 2212.619 1265.686, 2212.241 1298.927 C 2212.013 1318.962, 2212.111 1337.253, 2212.459 1339.575 C 2213.996 1349.827, 2225.323 1360.034, 2236.020 1360.808 C 2246.644 1361.576, 2254.837 1355.450, 2262.377 1341.101 C 2272.981 1320.922, 2275.722 1289.054, 2268.983 1264.272 C 2261.732 1237.602, 2245.393 1223.610, 2230.252 1231.104 M 2381.326 1230.035 C 2375.422 1231.216, 2372.181 1233.144, 2366.803 1238.672 C 2358.378 1247.332, 2351.982 1265.485, 2349.908 1286.624 C 2348.888 1297.029, 2349.829 1314.162, 2351.514 1315.847 C 2352.279 1316.612, 2359.682 1314.533, 2369.031 1310.928 C 2389.767 1302.931, 2403.757 1288.284, 2408.003 1270.126 C 2409.500 1263.723, 2408.851 1255.956, 2406.069 1246.984 C 2402.047 1234.008, 2392.875 1227.725, 2381.326 1230.035 M 1113 1312.014 C 1095.028 1312.843, 1088.580 1314.178, 1078.743 1319.106 C 1061.784 1327.601, 1048.816 1343.384, 1043.273 1362.272 C 1041.319 1368.934, 1040.105 1440.460, 1041.890 1443.795 C 1043.151 1446.150, 1049.963 1448.575, 1067.744 1452.997 C 1093.861 1459.493, 1103.020 1460.434, 1140.500 1460.469 C 1168.856 1460.495, 1176.326 1460.197, 1185.500 1458.673 C 1207.382 1455.037, 1227.391 1449.880, 1235.340 1445.826 L 1239.180 1443.867 1238.747 1405.684 C 1238.350 1370.749, 1238.139 1366.937, 1236.265 1360.882 C 1231.142 1344.328, 1221.176 1330.991, 1207.612 1322.537 C 1199.181 1317.282, 1192.189 1314.680, 1182.458 1313.175 C 1173.135 1311.732, 1133.463 1311.069, 1113 1312.014 M 978 1330.003 C 967.020 1330.861, 960.747 1332.207, 953.595 1335.236 C 942.462 1339.952, 931.155 1350.698, 926.032 1361.432 C 920.493 1373.038, 919.870 1377.198, 919.278 1406.517 C 918.793 1430.558, 918.910 1433.680, 920.343 1434.869 C 922.874 1436.970, 943.888 1441.753, 957.822 1443.400 C 971.623 1445.031, 1014.604 1446.429, 1019.687 1445.413 L 1022.840 1444.782 1023.252 1405.641 L 1023.665 1366.500 1026.445 1358 C 1029.393 1348.987, 1032.617 1342.047, 1036.778 1335.759 C 1038.264 1333.514, 1038.942 1331.572, 1038.410 1331.083 C 1037.161 1329.935, 989.720 1329.087, 978 1330.003 M 1245.193 1329.650 C 1240.643 1330.318, 1240.310 1332.153, 1243.725 1337.729 C 1255.094 1356.288, 1257.093 1367.890, 1256.936 1414.369 C 1256.871 1433.708, 1257.192 1443.592, 1257.911 1444.311 C 1259.611 1446.011, 1274.690 1446.309, 1298.530 1445.114 C 1320.676 1444.004, 1334.904 1442.013, 1350.218 1437.881 C 1361.856 1434.740, 1361.449 1435.974, 1360.677 1406.184 C 1360.324 1392.608, 1359.544 1378.800, 1358.942 1375.500 C 1356.151 1360.188, 1343.860 1343.997, 1329.878 1337.213 C 1316.991 1330.961, 1310.805 1330.052, 1278 1329.584 C 1261.775 1329.353, 1247.012 1329.383, 1245.193 1329.650 M 1589.011 1396.640 L 1585.856 1400.234 1589.178 1403.037 L 1592.500 1405.840 1595.750 1402.724 C 1597.537 1401.010, 1599 1399.358, 1599 1399.054 C 1599 1398.749, 1597.462 1397.273, 1595.583 1395.774 L 1592.166 1393.047 1589.011 1396.640 M 2055.201 1396.572 L 2052.159 1400.263 2054.974 1402.631 C 2056.522 1403.934, 2058.202 1405, 2058.707 1405 C 2060.358 1405, 2065.425 1399.018, 2064.443 1398.228 C 2063.925 1397.811, 2062.317 1396.437, 2060.872 1395.175 L 2058.244 1392.881 2055.201 1396.572 M 2243.463 1396.459 L 2240.713 1400.065 2243.031 1402.533 C 2244.306 1403.890, 2245.861 1405, 2246.487 1405 C 2248.295 1405, 2253.502 1399.080, 2252.443 1398.228 C 2251.925 1397.811, 2250.311 1396.431, 2248.857 1395.161 L 2246.214 1392.853 2243.463 1396.459 M 1674.500 1395.525 C 1673.950 1395.727, 1671.572 1396.388, 1669.216 1396.994 L 1664.932 1398.095 1666.966 1400.952 C 1668.314 1402.845, 1669 1405.386, 1669 1408.484 L 1669 1413.159 1665.750 1412.346 C 1653.515 1409.286, 1644.775 1416.795, 1644.584 1430.532 C 1644.383 1445, 1655.215 1453.434, 1665.750 1447.011 C 1668.402 1445.394, 1669 1445.303, 1669 1446.515 C 1669 1447.663, 1670.360 1448, 1675 1448 C 1678.300 1448, 1681 1447.733, 1681 1447.408 C 1681 1447.082, 1680.100 1445.671, 1679 1444.273 C 1677.130 1441.895, 1677 1440.216, 1677 1418.365 C 1677 1405.514, 1676.662 1395.036, 1676.250 1395.079 C 1675.838 1395.122, 1675.050 1395.323, 1674.500 1395.525 M 2263.750 1396.600 C 2261.137 1397.403, 2259 1398.349, 2259 1398.702 C 2259 1399.054, 2259.787 1400.212, 2260.750 1401.274 C 2262.289 1402.973, 2262.536 1405.965, 2262.802 1426.103 C 2262.969 1438.696, 2263.419 1448.986, 2263.802 1448.968 C 2264.186 1448.951, 2265.322 1448.313, 2266.327 1447.551 C 2267.886 1446.370, 2268.653 1446.375, 2271.545 1447.583 C 2279.097 1450.739, 2286.593 1448.288, 2291.093 1441.192 C 2298.141 1430.078, 2294.717 1415.372, 2284.278 1411.927 C 2281.574 1411.034, 2279.896 1411.131, 2276.005 1412.404 C 2273.321 1413.282, 2270.871 1414, 2270.562 1414 C 2270.253 1414, 2270 1409.725, 2270 1404.500 C 2270 1399.275, 2269.662 1395.031, 2269.250 1395.070 C 2268.838 1395.108, 2266.363 1395.797, 2263.750 1396.600 M 1544.927 1400.635 C 1546.865 1403.098, 1547 1404.554, 1547 1422.944 C 1547 1438.694, 1546.707 1443.005, 1545.532 1444.559 C 1544.724 1445.626, 1544.049 1446.838, 1544.032 1447.250 C 1544.014 1447.662, 1547.631 1448, 1552.068 1448 L 1560.136 1448 1558.068 1445.096 C 1556.414 1442.772, 1556 1440.672, 1556 1434.596 L 1556 1427 1562.177 1427 C 1567.909 1427, 1568.555 1427.234, 1571.137 1430.250 L 1573.919 1433.500 1573.959 1424.173 L 1574 1414.847 1571.411 1417.923 C 1569.016 1420.770, 1568.342 1421, 1562.411 1421 L 1556 1421 1556 1412.500 L 1556 1404 1565.420 1404 L 1574.839 1404 1578.393 1409.750 L 1581.946 1415.500 1581.973 1406.750 L 1582 1398 1562.427 1398 L 1542.855 1398 1544.927 1400.635 M 1696 1398.621 C 1696 1398.963, 1700.050 1405.707, 1705 1413.608 L 1714 1427.974 1714 1435.522 C 1714 1440.786, 1713.511 1443.816, 1712.385 1445.535 L 1710.770 1448 1718.885 1448 C 1723.348 1448, 1727 1447.620, 1727 1447.155 C 1727 1446.690, 1726.100 1445.495, 1725 1444.500 C 1723.328 1442.987, 1723 1441.420, 1723 1434.950 C 1723 1427.213, 1723.002 1427.208, 1729.648 1415.855 C 1733.304 1409.610, 1737.667 1403.037, 1739.344 1401.250 L 1742.392 1398 1735.196 1398 C 1727.985 1398, 1726.700 1398.677, 1729.500 1401 C 1730.325 1401.685, 1731 1402.669, 1731 1403.187 C 1731 1404.449, 1720.853 1421.005, 1720.095 1420.980 C 1719.294 1420.954, 1709 1404.493, 1709 1403.237 C 1709 1402.691, 1709.675 1401.685, 1710.500 1401 C 1713.349 1398.636, 1711.971 1398, 1704 1398 C 1699.600 1398, 1696 1398.280, 1696 1398.621 M 1865 1398.878 C 1865 1399.360, 1865.675 1400.315, 1866.500 1401 C 1868.805 1402.913, 1868.704 1441.996, 1866.385 1445.535 L 1864.770 1448 1883.385 1448 L 1902 1448 1902 1440.500 C 1902 1436.375, 1901.617 1433, 1901.149 1433 C 1900.682 1433, 1898.889 1435.268, 1897.165 1438.041 L 1894.032 1443.081 1885.766 1442.791 L 1877.500 1442.500 1877.228 1423.078 L 1876.956 1403.656 1879.665 1400.828 L 1882.374 1398 1873.687 1398 C 1868.909 1398, 1865 1398.395, 1865 1398.878 M 2170 1406 C 2170 1410.400, 2170.178 1414, 2170.396 1414 C 2170.613 1414, 2172.250 1411.728, 2174.032 1408.951 C 2177.230 1403.967, 2177.331 1403.905, 2181.886 1404.201 L 2186.500 1404.500 2186.773 1422.845 C 2187.028 1440.010, 2186.911 1441.409, 2184.941 1444.595 L 2182.837 1448 2190.987 1448 L 2199.136 1448 2197.068 1445.096 C 2195.151 1442.403, 2195 1440.798, 2195 1423.096 L 2195 1404 2199.750 1404.020 C 2204.378 1404.039, 2204.576 1404.168, 2207.455 1409.018 C 2209.081 1411.755, 2211.150 1414.230, 2212.054 1414.517 C 2214.934 1415.431, 2216 1419.797, 2216 1430.679 C 2216 1439.657, 2215.684 1441.775, 2213.918 1444.632 L 2211.837 1448 2219.418 1448 C 2223.588 1448, 2227 1447.620, 2227 1447.155 C 2227 1446.690, 2226.088 1445.484, 2224.972 1444.475 C 2223.102 1442.782, 2222.966 1441.624, 2223.222 1429.570 L 2223.500 1416.500 2226.878 1416.177 C 2229.727 1415.905, 2230.717 1416.415, 2233.208 1419.436 C 2234.832 1421.407, 2236.536 1422.787, 2236.993 1422.504 C 2237.451 1422.221, 2238.130 1420.192, 2238.501 1417.995 C 2239.268 1413.457, 2240.209 1413.033, 2242.443 1416.223 C 2243.637 1417.927, 2244 1421.174, 2244 1430.146 C 2244 1441.275, 2243.873 1441.997, 2241.411 1444.923 L 2238.822 1448 2246.911 1448 C 2251.360 1448, 2255 1447.620, 2255 1447.155 C 2255 1446.690, 2254.100 1445.495, 2253 1444.500 C 2251.152 1442.827, 2251 1441.420, 2251 1425.943 L 2251 1409.196 2246.750 1410.361 C 2244.068 1411.096, 2236.688 1411.403, 2226.750 1411.193 L 2211 1410.859 2211 1404.430 L 2211 1398 2190.500 1398 L 2170 1398 2170 1406 M 1591.500 1410.740 C 1588.750 1411.539, 1586.342 1412.345, 1586.148 1412.532 C 1585.954 1412.718, 1586.517 1413.900, 1587.398 1415.158 C 1588.658 1416.956, 1589 1420.088, 1589 1429.818 C 1589 1440.724, 1588.755 1442.536, 1586.932 1445.096 L 1584.864 1448 1592.932 1448 C 1597.369 1448, 1601 1447.620, 1601 1447.155 C 1601 1446.690, 1600.110 1445.505, 1599.023 1444.521 C 1597.227 1442.896, 1597.021 1441.200, 1596.773 1426.010 L 1596.500 1409.289 1591.500 1410.740 M 1610.500 1410.052 C 1609.400 1410.556, 1607.215 1411.432, 1605.645 1411.999 C 1602.879 1412.998, 1602.840 1413.107, 1604.395 1415.480 C 1606.772 1419.108, 1606.729 1442.537, 1604.339 1445.177 C 1603.426 1446.187, 1602.922 1447.255, 1603.219 1447.552 C 1603.516 1447.849, 1607.006 1447.959, 1610.975 1447.796 L 1618.191 1447.500 1616.095 1444.842 C 1614.255 1442.507, 1614 1440.840, 1614 1431.118 L 1614 1420.051 1616.950 1418.526 C 1620.983 1416.441, 1624.612 1416.612, 1627 1419 C 1628.758 1420.758, 1629 1422.333, 1629 1432.035 C 1629 1440.509, 1628.625 1443.642, 1627.385 1445.535 L 1625.770 1448 1633.458 1448 L 1641.145 1448 1639.073 1445.365 C 1637.278 1443.083, 1637 1441.337, 1637 1432.333 C 1637 1421.474, 1635.849 1416.866, 1632.388 1413.861 C 1629.423 1411.288, 1624.964 1410.804, 1619.495 1412.463 C 1616.748 1413.297, 1614.388 1413.983, 1614.250 1413.989 C 1614.112 1413.995, 1614 1412.875, 1614 1411.500 C 1614 1408.810, 1613.585 1408.638, 1610.500 1410.052 M 2019 1410.238 C 2017.625 1410.780, 2008.963 1411.145, 1999.750 1411.050 C 1990.537 1410.955, 1983.010 1411.242, 1983.022 1411.688 C 1983.034 1412.135, 1983.924 1413.625, 1985 1415 C 1986.705 1417.180, 1986.958 1419.137, 1986.978 1430.285 C 1986.995 1440.398, 1986.662 1443.586, 1985.385 1445.535 L 1983.770 1448 1991.385 1448 C 1995.573 1448, 1999 1447.620, 1999 1447.155 C 1999 1446.690, 1998.088 1445.484, 1996.972 1444.475 C 1995.102 1442.782, 1994.966 1441.624, 1995.222 1429.570 L 1995.500 1416.500 1998.878 1416.177 C 2001.727 1415.905, 2002.717 1416.415, 2005.208 1419.436 C 2006.832 1421.407, 2008.524 1422.794, 2008.967 1422.520 C 2009.410 1422.246, 2010.076 1420.409, 2010.446 1418.438 C 2010.969 1415.646, 2011.406 1415.092, 2012.418 1415.932 C 2013.270 1416.639, 2013.959 1421.147, 2014.421 1429.037 C 2015.077 1440.260, 2014.981 1441.295, 2012.981 1444.532 L 2010.837 1448 2018.454 1448 C 2025.688 1448, 2026.018 1447.902, 2025.030 1446.056 C 2024.457 1444.986, 2023.542 1443.835, 2022.995 1443.497 C 2022.431 1443.148, 2022 1438.021, 2022 1431.657 L 2022 1420.431 2024.904 1418.716 C 2028.757 1416.440, 2032.547 1416.547, 2035 1419 C 2036.758 1420.758, 2037 1422.333, 2037 1432.035 C 2037 1440.509, 2036.625 1443.642, 2035.385 1445.535 L 2033.770 1448 2040.885 1448 C 2044.798 1448, 2047.986 1447.662, 2047.968 1447.250 C 2047.951 1446.838, 2047.276 1445.626, 2046.468 1444.559 C 2045.397 1443.143, 2045 1439.821, 2045 1432.277 C 2045 1421.476, 2043.844 1416.861, 2040.388 1413.861 C 2037.398 1411.266, 2032.779 1410.740, 2027.900 1412.439 C 2022.211 1414.420, 2022.188 1414.417, 2021.816 1411.626 C 2021.537 1409.526, 2021.212 1409.366, 2019 1410.238 M 2057.250 1410.795 C 2051.683 1412.344, 2051.095 1413.004, 2053.500 1415 C 2054.695 1415.992, 2055 1418.936, 2055 1429.488 C 2055 1441.371, 2054.787 1443.001, 2052.927 1445.365 L 2050.855 1448 2059.615 1448 L 2068.374 1448 2065.712 1445.222 C 2063.076 1442.470, 2063.048 1442.285, 2062.775 1425.888 L 2062.500 1409.333 2057.250 1410.795 M 2075.500 1410.652 C 2073.300 1411.406, 2070.922 1412.235, 2070.215 1412.494 C 2069.226 1412.856, 2069.327 1413.569, 2070.655 1415.596 C 2071.947 1417.569, 2072.489 1421.069, 2072.813 1429.547 C 2073.209 1439.895, 2073.058 1441.171, 2071.042 1444.433 L 2068.837 1448 2076.454 1448 C 2083.688 1448, 2084.018 1447.902, 2083.030 1446.056 C 2082.457 1444.986, 2081.542 1443.835, 2080.995 1443.497 C 2080.431 1443.148, 2080 1438.021, 2080 1431.657 L 2080 1420.431 2082.904 1418.716 C 2086.757 1416.440, 2090.547 1416.547, 2093 1419 C 2094.758 1420.758, 2095 1422.333, 2095 1432.035 C 2095 1440.509, 2094.625 1443.642, 2093.385 1445.535 L 2091.770 1448 2099.458 1448 L 2107.145 1448 2105.073 1445.365 C 2103.263 1443.065, 2103 1441.343, 2103 1431.815 C 2103 1420.555, 2102.131 1417.197, 2098.352 1413.859 C 2095.419 1411.268, 2090.781 1410.739, 2085.900 1412.439 C 2080.213 1414.419, 2080.189 1414.416, 2079.816 1411.640 C 2079.508 1409.338, 2079.401 1409.314, 2075.500 1410.652 M 2148.369 1411.960 L 2144.345 1414.920 2139.922 1412.716 C 2130.954 1408.247, 2117.865 1410.880, 2113.660 1417.999 C 2111.482 1421.686, 2111.456 1430.779, 2113.616 1433.862 C 2114.805 1435.559, 2114.937 1436.463, 2114.116 1437.284 C 2112.458 1438.942, 2112.765 1444.083, 2114.646 1446.161 C 2116.187 1447.864, 2116.123 1448.150, 2113.646 1450.627 C 2109.960 1454.312, 2109.955 1460.033, 2113.635 1462.928 C 2117.653 1466.088, 2122.972 1467.274, 2131.110 1466.825 C 2143.046 1466.165, 2149.987 1461.259, 2149.996 1453.473 C 2150.005 1446.785, 2145.206 1443.588, 2133.558 1442.521 C 2122.468 1441.505, 2120.480 1440.440, 2129.735 1440.472 C 2138.842 1440.505, 2143.143 1438.553, 2146.201 1433 C 2147.700 1430.278, 2148.001 1428.333, 2147.556 1424.250 L 2146.983 1419 2149.991 1419 C 2152.935 1419, 2153 1418.892, 2153 1414 C 2153 1411.250, 2152.864 1409, 2152.697 1409 C 2152.530 1409, 2150.583 1410.332, 2148.369 1411.960 M 1751.123 1410.955 C 1744.121 1412.706, 1738.688 1418.928, 1737.553 1426.495 C 1736.701 1432.174, 1739.023 1440.733, 1742.232 1443.749 C 1749.821 1450.878, 1764.505 1450.745, 1770.876 1443.489 C 1778.659 1434.625, 1777.006 1418.875, 1767.689 1413.117 C 1763.932 1410.795, 1755.933 1409.751, 1751.123 1410.955 M 1919.951 1411.283 C 1914.996 1412.982, 1912.551 1414.952, 1909.974 1419.319 C 1906.800 1424.698, 1906.871 1434.224, 1910.128 1440.129 C 1915.576 1450.005, 1929.068 1452.055, 1937.250 1444.249 C 1942.117 1439.607, 1939.991 1436.147, 1934.903 1440.428 C 1931.601 1443.206, 1924.682 1443.971, 1920.945 1441.970 C 1919.042 1440.952, 1916 1436.079, 1916 1434.050 C 1916 1433.373, 1920.439 1433, 1928.500 1433 L 1941 1433 1940.998 1427.250 C 1940.996 1417.288, 1936.512 1411.753, 1927.495 1410.584 C 1925.298 1410.299, 1921.903 1410.613, 1919.951 1411.283 M 2312 1411.125 C 2307.688 1412.397, 2303.205 1416.445, 2301.377 1420.718 C 2299.214 1425.774, 2299.623 1434.829, 2302.250 1440.034 C 2307.275 1449.990, 2320.988 1452.131, 2329.250 1444.249 C 2334.117 1439.607, 2331.991 1436.147, 2326.903 1440.428 C 2323.601 1443.206, 2316.682 1443.971, 2312.945 1441.970 C 2311.042 1440.952, 2308 1436.079, 2308 1434.050 C 2308 1433.373, 2312.415 1433, 2320.421 1433 L 2332.841 1433 2333.463 1430.167 C 2334.222 1426.713, 2332.777 1419.835, 2330.592 1416.501 C 2327.421 1411.660, 2318.718 1409.144, 2312 1411.125 M 1780 1411.809 C 1780 1412.254, 1780.661 1413.491, 1781.468 1414.559 C 1782.542 1415.978, 1782.945 1419.383, 1782.968 1427.230 C 1782.990 1434.735, 1783.488 1439.179, 1784.624 1442.018 C 1787.342 1448.812, 1794.104 1450.836, 1801.265 1446.998 C 1804.365 1445.336, 1805 1445.251, 1805 1446.498 C 1805 1447.669, 1806.337 1448, 1811.068 1448 L 1817.136 1448 1815.068 1445.096 C 1813.190 1442.458, 1813 1440.760, 1813 1426.596 L 1813 1411 1807.500 1411 C 1801.662 1411, 1801.131 1411.469, 1803.468 1414.559 C 1804.539 1415.974, 1804.945 1419.365, 1804.968 1427.076 C 1804.998 1436.859, 1804.827 1437.814, 1802.686 1439.826 C 1799.646 1442.681, 1793.509 1442.820, 1792.035 1440.066 C 1791.466 1439.002, 1791 1433.543, 1791 1427.934 C 1791 1419.348, 1791.329 1417.204, 1793.082 1414.368 L 1795.163 1411 1787.582 1411 C 1783.412 1411, 1780 1411.364, 1780 1411.809 M 1819.022 1411.750 C 1819.034 1412.162, 1819.924 1413.625, 1821 1415 C 1822.711 1417.188, 1822.958 1419.139, 1822.978 1430.628 C 1822.995 1441.096, 1822.696 1444.007, 1821.500 1445 C 1818.681 1447.340, 1820.002 1448, 1827.500 1448 C 1831.625 1448, 1835 1447.620, 1835 1447.155 C 1835 1446.690, 1834.088 1445.484, 1832.972 1444.475 C 1831.102 1442.782, 1830.966 1441.624, 1831.222 1429.570 L 1831.500 1416.500 1834.726 1416.188 C 1837.371 1415.933, 1838.517 1416.519, 1841.077 1419.435 C 1842.796 1421.392, 1844.555 1422.775, 1844.987 1422.508 C 1845.420 1422.241, 1846.073 1420.330, 1846.440 1418.261 C 1846.807 1416.192, 1847.338 1413.713, 1847.621 1412.750 C 1848.094 1411.140, 1846.970 1411, 1833.567 1411 C 1825.555 1411, 1819.010 1411.338, 1819.022 1411.750 M 1946 1411.407 C 1946 1411.631, 1947.386 1414.893, 1949.080 1418.657 L 1952.161 1425.500 1954.682 1421.250 C 1957.199 1417.007, 1957.213 1417, 1963.168 1417 C 1969.085 1417, 1969.130 1417.022, 1968.816 1419.750 C 1968.539 1422.158, 1967.559 1422.873, 1960.931 1425.500 C 1956.768 1427.150, 1952.196 1429.272, 1950.770 1430.215 C 1944.395 1434.432, 1945.449 1444.618, 1952.568 1447.593 C 1956.690 1449.315, 1960.767 1448.803, 1965.750 1445.937 C 1968.949 1444.097, 1969 1444.099, 1969 1446.034 C 1969 1447.773, 1969.701 1448, 1975.068 1448 L 1981.136 1448 1978.998 1444.997 C 1976.996 1442.185, 1976.880 1441.004, 1977.180 1426.495 L 1977.500 1410.997 1961.750 1410.999 C 1953.088 1410.999, 1946 1411.183, 1946 1411.407 M 1751.217 1417.561 C 1747.959 1419.842, 1746 1424.283, 1746 1429.385 C 1746 1438.185, 1749.560 1443, 1756.066 1443 C 1764.244 1443, 1767.460 1438.569, 1766.801 1428.212 C 1766.433 1422.433, 1766.043 1421.428, 1763.178 1418.868 C 1759.519 1415.599, 1754.761 1415.078, 1751.217 1417.561 M 1921.217 1417.561 C 1919.003 1419.111, 1916 1423.941, 1916 1425.950 C 1916 1426.601, 1919.232 1427, 1924.500 1427 L 1933 1427 1933 1424.135 C 1933 1417.618, 1926.395 1413.934, 1921.217 1417.561 M 2122.923 1418.923 C 2119.092 1422.754, 2118.967 1427.619, 2122.589 1431.923 C 2124.809 1434.562, 2125.853 1435, 2129.915 1435 C 2136.230 1435, 2139.013 1432.213, 2138.968 1425.936 C 2138.934 1421.179, 2137.784 1419.011, 2134.316 1417.163 C 2130.418 1415.087, 2126.091 1415.756, 2122.923 1418.923 M 2313.217 1417.561 C 2311.003 1419.111, 2308 1423.941, 2308 1425.950 C 2308 1426.601, 2311.232 1427, 2316.500 1427 L 2325 1427 2325 1424.135 C 2325 1417.618, 2318.395 1413.934, 2313.217 1417.561 M 1658.217 1418.561 C 1652.894 1422.289, 1651.244 1432.608, 1654.989 1438.750 C 1656.695 1441.548, 1657.529 1442, 1660.985 1442 C 1667.667 1442, 1669 1439.781, 1669 1428.661 C 1669 1419.623, 1668.918 1419.284, 1666.453 1418.161 C 1663.019 1416.596, 1660.873 1416.700, 1658.217 1418.561 M 2272.718 1418.589 L 2269.935 1420.098 2270.218 1431.299 L 2270.500 1442.500 2275.621 1442.798 C 2280.297 1443.070, 2280.970 1442.824, 2283.371 1439.971 C 2288.117 1434.331, 2286.716 1421.059, 2281.055 1418.030 C 2278.443 1416.631, 2276.029 1416.793, 2272.718 1418.589 M 1962.220 1430.858 C 1958.005 1433.228, 1955.743 1435.175, 1955.341 1436.779 C 1954.455 1440.306, 1957.001 1442.416, 1961.163 1441.606 C 1966.603 1440.547, 1969.140 1437.936, 1969.719 1432.798 C 1970.001 1430.302, 1969.841 1428.050, 1969.365 1427.793 C 1968.889 1427.536, 1965.674 1428.915, 1962.220 1430.858 M 2339.714 1441.619 C 2338.488 1442.845, 2338.933 1446.699, 2340.445 1447.954 C 2343.872 1450.798, 2349.665 1446.876, 2347.394 1443.250 C 2346.272 1441.457, 2340.996 1440.337, 2339.714 1441.619 M 2120.193 1450.576 C 2117.126 1452.726, 2117.631 1456.657, 2121.326 1459.401 C 2123.446 1460.975, 2125.572 1461.487, 2129.826 1461.449 C 2137.572 1461.380, 2141.500 1459.375, 2141.500 1455.491 C 2141.500 1452.963, 2140.967 1452.338, 2138 1451.388 C 2131.156 1449.197, 2122.710 1448.811, 2120.193 1450.576" stroke="none" fill="#102e4a" fill-rule="evenodd"/>
</svg>