<svg xmlns="http://www.w3.org/2000/svg" width="3264" height="2448" viewBox="0 0 3264 2448" version="1.1">
	<path d="M 1624 853.277 C 1622.625 853.905, 1616.853 856.575, 1611.173 859.209 C 1605.493 861.844, 1600.704 864, 1600.531 864 C 1600.359 864, 1593.756 867.096, 1585.859 870.881 C 1569.981 878.489, 1557.251 884.515, 1546.250 889.629 C 1542.263 891.483, 1535.513 894.624, 1531.250 896.609 C 1520.293 901.713, 1498.510 911.762, 1492 914.716 C 1485.067 917.863, 1477.337 921.459, 1464 927.741 C 1458.225 930.462, 1451.700 933.501, 1449.500 934.494 C 1447.300 935.488, 1430.185 943.815, 1411.467 952.999 C 1375.575 970.608, 1372 972.965, 1372 979.021 C 1372 980.598, 1373.013 983.032, 1374.250 984.429 C 1375.487 985.826, 1384.600 991.050, 1394.500 996.037 C 1404.400 1001.025, 1413.063 1005.842, 1413.750 1006.744 C 1414.689 1007.975, 1415 1016.244, 1415 1039.988 L 1415 1071.594 1410.918 1075.547 C 1405.162 1081.120, 1403.684 1084.363, 1404.245 1090.195 C 1404.587 1093.758, 1405.595 1096.157, 1408.015 1099.168 L 1411.317 1103.277 1409.520 1113.889 C 1408.531 1119.725, 1407.359 1127.425, 1406.916 1131 C 1406.473 1134.575, 1405.635 1139.924, 1405.055 1142.886 C 1403.374 1151.469, 1403.668 1154.741, 1406.250 1156.208 C 1409.420 1158.009, 1434.388 1158.003, 1436.196 1156.200 C 1437.849 1154.552, 1437.483 1143.210, 1435.501 1134.652 C 1434.717 1131.268, 1433.556 1124.450, 1432.922 1119.500 C 1432.288 1114.550, 1431.561 1108.925, 1431.307 1107 C 1430.945 1104.260, 1431.480 1102.624, 1433.770 1099.469 C 1439.605 1091.429, 1439.119 1083.345, 1432.373 1076.203 L 1428 1071.574 1428 1044.869 C 1428 1030.181, 1428.273 1017.452, 1428.607 1016.582 C 1428.941 1015.712, 1429.953 1015.008, 1430.857 1015.019 C 1432.469 1015.037, 1441.589 1019.430, 1449.500 1023.999 C 1458.324 1029.094, 1465.831 1033, 1466.802 1033 C 1467.366 1033, 1469.405 1030.180, 1471.332 1026.734 C 1476.584 1017.343, 1482.281 1011.497, 1491.356 1006.186 C 1502.771 999.505, 1510.288 996.352, 1523.792 992.579 C 1542.927 987.234, 1556.456 984.674, 1580.500 981.848 C 1597.726 979.823, 1663.300 980.116, 1683.500 982.308 C 1723.703 986.671, 1744.785 991.818, 1766.788 1002.642 C 1775.948 1007.148, 1779.459 1009.543, 1785.410 1015.347 C 1789.443 1019.281, 1793.668 1024.330, 1794.798 1026.567 C 1795.929 1028.804, 1797.500 1031.170, 1798.290 1031.826 C 1799.451 1032.789, 1808.243 1028.730, 1844.113 1010.668 C 1889.945 987.591, 1896 983.862, 1896 978.715 C 1896 973.443, 1891.339 970.463, 1860 955.702 C 1854.775 953.241, 1843.975 948.088, 1836 944.251 C 1806.704 930.156, 1802.237 928.058, 1789 922.171 C 1781.575 918.869, 1772.226 914.554, 1768.224 912.583 C 1764.222 910.613, 1760.783 909, 1760.583 909 C 1760.253 909, 1749.182 903.755, 1720.500 890.014 C 1715 887.378, 1706.675 883.418, 1702 881.212 C 1697.325 879.006, 1687.200 874.185, 1679.500 870.499 C 1661.575 861.918, 1650.973 857.059, 1642.628 853.604 C 1638.173 851.759, 1627.726 851.576, 1624 853.277 M 1597.500 1008.531 C 1596.950 1008.735, 1589.038 1009.590, 1579.918 1010.430 C 1562.534 1012.031, 1560.479 1012.372, 1539.500 1017.130 C 1518.947 1021.791, 1505.036 1027.897, 1498.508 1035.122 L 1495 1039.006 1495 1084.034 C 1495 1121.287, 1495.237 1129.154, 1496.373 1129.590 C 1497.128 1129.879, 1502.866 1128.129, 1509.123 1125.700 C 1534.096 1116.006, 1557.979 1110.254, 1585.500 1107.305 C 1603.800 1105.345, 1657.614 1105.061, 1675.500 1106.831 C 1701.281 1109.382, 1730.053 1115.791, 1752.375 1123.954 C 1759.963 1126.729, 1766.980 1129, 1767.969 1129 C 1769.053 1129, 1769.919 1128.107, 1770.149 1126.750 C 1770.360 1125.513, 1770.300 1104.848, 1770.016 1080.828 L 1769.500 1037.157 1767.025 1034.524 C 1764.191 1031.510, 1753.088 1025.288, 1745 1022.182 C 1733.509 1017.768, 1707.471 1012.470, 1690.055 1011.002 C 1683.150 1010.420, 1672.775 1009.505, 1667 1008.969 C 1657.234 1008.063, 1599.729 1007.700, 1597.500 1008.531 M 1617 1155.567 C 1594.227 1159.667, 1573.193 1173.938, 1559.057 1194.878 C 1538.633 1225.133, 1538.905 1267.577, 1559.710 1296.809 C 1569.640 1310.762, 1578.682 1318.397, 1595 1326.607 C 1607.389 1332.841, 1615.467 1334.473, 1634 1334.487 C 1650.001 1334.500, 1650.807 1334.400, 1660.642 1331.179 C 1677.496 1325.661, 1693.791 1314.482, 1705.045 1300.718 C 1711.629 1292.666, 1719.255 1276.883, 1722.062 1265.500 C 1725.226 1252.670, 1725.234 1236.736, 1722.083 1224.187 C 1718.063 1208.175, 1706.738 1189.248, 1694.692 1178.409 C 1690.036 1174.220, 1678.578 1166, 1677.394 1166 C 1677.139 1166, 1675.747 1165.225, 1674.301 1164.278 C 1666.464 1159.143, 1644.275 1153.940, 1631 1154.126 C 1627.425 1154.176, 1621.125 1154.824, 1617 1155.567 M 1407.500 1218.438 C 1372.130 1227.631, 1351.413 1252.149, 1348.345 1288.445 C 1347.181 1302.212, 1353.343 1323.149, 1361.887 1334.467 C 1373.066 1349.273, 1385.018 1357.814, 1402.035 1363.155 C 1408.431 1365.162, 1411.577 1365.497, 1424 1365.494 C 1436.650 1365.491, 1439.393 1365.187, 1445.500 1363.107 C 1467.876 1355.484, 1483.270 1342.131, 1493.982 1321.052 C 1499.669 1309.861, 1501.596 1289.962, 1498.374 1275.697 C 1493.180 1252.701, 1474.417 1231.068, 1452 1222.230 C 1435.049 1215.547, 1422.678 1214.493, 1407.500 1218.438 M 1832.500 1216.714 C 1814.706 1219.173, 1799.001 1226.988, 1787.443 1239.134 C 1777.446 1249.640, 1771.596 1259.798, 1769.053 1271.066 C 1768.378 1274.055, 1767.416 1278.127, 1766.913 1280.116 C 1765.751 1284.719, 1765.726 1300.794, 1766.875 1304.601 C 1767.357 1306.195, 1768.322 1309.975, 1769.019 1313 C 1773.061 1330.530, 1788.114 1348.994, 1805.500 1357.750 C 1817.561 1363.823, 1824.940 1365.402, 1841.500 1365.454 C 1855.376 1365.497, 1857.109 1365.291, 1864.627 1362.709 C 1896.600 1351.728, 1917.430 1323.378, 1917.315 1291 C 1917.293 1284.782, 1916.656 1278.257, 1915.754 1275 C 1908.806 1249.925, 1892.552 1231.174, 1870 1222.217 C 1857.589 1217.288, 1843.407 1215.207, 1832.500 1216.714 M 1576.500 1358.078 C 1561.031 1360.721, 1557.908 1361.415, 1551.799 1363.564 C 1538.593 1368.210, 1531.184 1372.588, 1519 1382.943 C 1506.158 1393.858, 1499.441 1402.484, 1492.962 1416.381 C 1483.373 1436.949, 1482.832 1442.023, 1483.207 1507.985 L 1483.500 1559.470 1487.500 1561.546 C 1491.078 1563.403, 1515.640 1571.063, 1522 1572.305 C 1523.375 1572.574, 1530.995 1574.208, 1538.933 1575.937 C 1567.279 1582.110, 1597.234 1584.989, 1633.170 1584.996 C 1685.476 1585.005, 1727.178 1579.073, 1766.938 1565.968 C 1778.316 1562.218, 1781.614 1560.590, 1782.970 1558.055 C 1784.338 1555.499, 1784.324 1469.534, 1782.953 1453.500 C 1781.030 1431.002, 1774.974 1414.414, 1762.690 1398 C 1756.294 1389.453, 1753.104 1386.241, 1744.763 1379.949 C 1730.172 1368.942, 1715.947 1362.614, 1700 1360.035 C 1695.875 1359.368, 1690.340 1358.413, 1687.701 1357.911 C 1681.690 1356.770, 1583.293 1356.917, 1576.500 1358.078 M 1391.500 1385.083 C 1365.335 1386.575, 1351.320 1390.473, 1336.500 1400.380 C 1316.859 1413.509, 1304.358 1432.743, 1299.373 1457.500 C 1297.835 1465.137, 1296.174 1534.784, 1297.377 1541.194 C 1298.153 1545.330, 1300.875 1546.804, 1313.500 1549.923 C 1347.157 1558.238, 1362.818 1559.975, 1410.500 1560.677 C 1431.400 1560.985, 1449.982 1560.842, 1451.794 1560.358 L 1455.088 1559.480 1455.456 1503.990 C 1455.852 1444.224, 1455.982 1442.539, 1461.529 1425 C 1464.552 1415.441, 1470.938 1402.174, 1476.393 1394.124 C 1480.767 1387.667, 1480.197 1386.362, 1472.680 1385.605 C 1463.141 1384.645, 1405.664 1384.276, 1391.500 1385.083 M 1797.953 1384.686 C 1788.391 1385.913, 1787.118 1386.249, 1786.565 1387.692 C 1786.197 1388.651, 1787.532 1391.724, 1789.911 1395.394 C 1792.088 1398.752, 1795.493 1405.100, 1797.476 1409.500 C 1799.460 1413.900, 1801.515 1418.400, 1802.043 1419.500 C 1803.874 1423.315, 1806.857 1433.530, 1807.883 1439.500 C 1809.778 1450.527, 1810.357 1467.164, 1810.429 1512.697 C 1810.485 1548.474, 1810.772 1558.166, 1811.806 1559.197 C 1813.595 1560.982, 1882.447 1560.897, 1899.500 1559.089 C 1923.609 1556.533, 1951.621 1550.874, 1962.730 1546.315 C 1969.427 1543.567, 1969.357 1544.074, 1968.721 1502.702 C 1968.081 1461.079, 1967.179 1453.085, 1961.577 1439.343 C 1953.738 1420.115, 1940.006 1405.406, 1921.109 1395.993 C 1904.923 1387.931, 1897.303 1386.368, 1867.500 1384.999 C 1849.450 1384.170, 1803.584 1383.964, 1797.953 1384.686 M 1354.688 1627.551 C 1362.999 1634.520, 1363 1634.525, 1363 1662.338 L 1363 1686.940 1359.328 1684.448 C 1351.554 1679.172, 1336.932 1677.013, 1324.896 1679.363 C 1307.895 1682.682, 1291.792 1693.130, 1281.525 1707.500 C 1266.109 1729.080, 1261.934 1757.964, 1270.699 1782.405 C 1281.263 1811.860, 1308.514 1831.915, 1338.068 1831.983 C 1347.220 1832.004, 1353.549 1830.246, 1361.449 1825.488 L 1367.399 1821.906 1373.215 1824.516 C 1376.953 1826.194, 1382.152 1827.455, 1387.766 1828.045 C 1397.430 1829.062, 1414.356 1829.311, 1415.219 1828.448 C 1415.522 1828.145, 1413.304 1825.563, 1410.289 1822.712 C 1407.274 1819.860, 1404.175 1816.306, 1403.403 1814.813 C 1402.241 1812.566, 1402 1800.998, 1402 1747.550 C 1402 1712.047, 1402.291 1683, 1402.647 1683 C 1403.939 1683, 1411.959 1690.134, 1414.201 1693.277 C 1416.473 1696.462, 1416.507 1696.945, 1417.106 1734 C 1417.595 1764.250, 1418.033 1772.732, 1419.373 1777.871 C 1427.833 1810.332, 1447.960 1829.232, 1476.559 1831.571 C 1490.828 1832.738, 1502.169 1829.149, 1511.923 1820.379 L 1516.962 1815.849 1521.850 1819.971 C 1529.565 1826.476, 1535.152 1828.116, 1551.750 1828.750 C 1560.755 1829.094, 1566 1828.933, 1566 1828.314 C 1566 1827.776, 1564.170 1825.864, 1561.933 1824.067 C 1559.697 1822.269, 1556.547 1818.976, 1554.933 1816.749 L 1552 1812.700 1552 1755 L 1552 1697.300 1554.868 1693.341 C 1556.445 1691.164, 1559.676 1687.721, 1562.048 1685.691 L 1566.360 1682 1532.996 1682 L 1499.632 1682 1505.719 1687.810 C 1509.836 1691.740, 1512.192 1694.910, 1513.001 1697.608 C 1513.878 1700.536, 1514.083 1713.275, 1513.771 1745.548 C 1513.375 1786.579, 1513.210 1789.913, 1511.289 1795.714 C 1508.289 1804.778, 1504.670 1810.338, 1499.122 1814.411 C 1492.621 1819.183, 1488.034 1821, 1482.492 1821 C 1466.606 1821, 1458.477 1804.982, 1456.007 1768.812 C 1455.469 1760.940, 1455.023 1738.195, 1455.015 1718.267 L 1455 1682.033 1428.750 1681.767 L 1402.500 1681.500 1402.235 1652.750 L 1401.969 1624 1376.235 1624.020 L 1350.500 1624.039 1354.688 1627.551 M 1801.180 1627.820 C 1791.661 1637.339, 1794.246 1653.068, 1806.289 1658.898 C 1825.807 1668.346, 1843.388 1643.152, 1828.008 1627.773 L 1824.235 1624 1814.618 1624 L 1805 1624 1801.180 1627.820 M 1843.130 1628.719 C 1845.905 1631.314, 1848.810 1634.666, 1849.587 1636.169 C 1850.772 1638.461, 1851 1652.889, 1851 1725.728 C 1851 1821.027, 1851.472 1813.399, 1845.156 1820.254 L 1842.618 1823.008 1839.720 1820.254 C 1833.746 1814.577, 1834 1817.834, 1834 1747.050 L 1834 1682 1807.712 1682 L 1781.424 1682 1788.212 1688.938 L 1795 1695.875 1795 1754.800 L 1795 1813.725 1792.250 1817.178 C 1790.737 1819.078, 1787.813 1822.111, 1785.750 1823.919 C 1783.688 1825.728, 1782 1827.611, 1782 1828.104 C 1782 1829.311, 1855.211 1829.248, 1865.787 1828.032 C 1870.741 1827.462, 1876.392 1826.039, 1879.837 1824.493 L 1885.601 1821.906 1891.551 1825.488 C 1899.451 1830.246, 1905.780 1832.004, 1914.932 1831.983 C 1941.735 1831.921, 1965.902 1816.164, 1978.552 1790.500 C 1983.927 1779.596, 1985.858 1772.418, 1986.674 1760.310 C 1988.521 1732.921, 1975.444 1704.957, 1954.092 1690.631 C 1944.584 1684.252, 1937.031 1681.048, 1927.500 1679.350 C 1914.796 1677.088, 1901.533 1679.113, 1893.541 1684.536 L 1890 1686.940 1890 1655.470 L 1890 1624 1864.043 1624 L 1838.086 1624 1843.130 1628.719 M 1147.660 1629.782 C 1156.775 1638.117, 1156.433 1636.720, 1157 1667.952 L 1157.500 1695.500 1160.325 1701 C 1163.547 1707.274, 1165.930 1710.117, 1171.231 1714.013 L 1174.961 1716.755 1171.231 1719.354 C 1166.857 1722.400, 1163.197 1726.812, 1159.882 1733.031 C 1157.518 1737.467, 1157.496 1737.788, 1157 1776.580 L 1156.500 1815.660 1153.711 1819.314 C 1152.178 1821.324, 1149.140 1824.400, 1146.961 1826.151 C 1144.783 1827.902, 1143 1829.709, 1143 1830.167 C 1143 1830.625, 1171.350 1831, 1206 1831 L 1269 1831 1269.014 1828.750 C 1269.041 1824.511, 1265.671 1799, 1265.085 1799.009 C 1264.763 1799.014, 1260.450 1801.919, 1255.500 1805.464 C 1238.630 1817.548, 1230.879 1819.955, 1208.750 1819.983 L 1195 1820 1195 1775.901 C 1195 1727.122, 1195.067 1726.568, 1201.335 1723.327 C 1206.041 1720.893, 1217.596 1722.048, 1227.167 1725.908 C 1231.383 1727.608, 1235.321 1729, 1235.917 1729 C 1236.637 1729, 1237 1724.808, 1237 1716.500 C 1237 1709.625, 1236.806 1704, 1236.568 1704 C 1236.331 1704, 1232.393 1705.391, 1227.818 1707.091 C 1217.350 1710.980, 1205.958 1712.064, 1201.230 1709.619 C 1195.722 1706.771, 1195.543 1705.817, 1195 1676.500 C 1194.521 1650.629, 1194.401 1649.299, 1192.127 1644.681 C 1190.822 1642.031, 1188.629 1638.524, 1187.253 1636.889 C 1185.877 1635.254, 1184.926 1633.741, 1185.139 1633.527 C 1186.045 1632.621, 1225.560 1636.044, 1231.738 1637.564 C 1241.073 1639.861, 1248.583 1644.055, 1255.895 1651.056 C 1265.159 1659.926, 1265.390 1659.758, 1267.371 1642.750 C 1268.283 1634.912, 1269.023 1627.713, 1269.015 1626.750 C 1269.001 1625.102, 1265.328 1625.002, 1205.750 1625.032 L 1142.500 1625.064 1147.660 1629.782 M 1556.036 1626.250 C 1556.114 1628.919, 1559.827 1656.159, 1560.154 1656.453 C 1560.344 1656.625, 1564.775 1653.659, 1570 1649.862 C 1581.327 1641.632, 1589.699 1637.411, 1596.500 1636.501 C 1599.250 1636.133, 1602.287 1635.614, 1603.250 1635.349 C 1604.907 1634.891, 1605 1639.647, 1604.993 1725.183 C 1604.986 1828.015, 1605.979 1817.117, 1595.785 1826.218 L 1590.500 1830.936 1624.250 1830.968 C 1642.813 1830.986, 1657.983 1830.662, 1657.962 1830.250 C 1657.941 1829.838, 1655.885 1827.925, 1653.392 1826 C 1650.899 1824.075, 1647.766 1820.660, 1646.430 1818.412 L 1644 1814.324 1644 1734.344 C 1644 1645.823, 1644.215 1648.979, 1637.501 1639.001 L 1634.033 1633.848 1636.767 1634.395 C 1638.270 1634.695, 1643.270 1635.434, 1647.879 1636.036 C 1660.595 1637.697, 1668.377 1641.353, 1683.349 1652.701 C 1686.567 1655.139, 1689.308 1656.992, 1689.442 1656.817 C 1689.772 1656.386, 1693.032 1628.944, 1693.014 1626.750 C 1693.001 1625.101, 1689.066 1625, 1624.500 1625 C 1570.347 1625, 1556.008 1625.262, 1556.036 1626.250 M 1739.166 1679.489 C 1731.667 1681.170, 1725.298 1684.705, 1718.770 1690.812 L 1714.010 1695.264 1709.605 1691.203 C 1701.020 1683.291, 1698.613 1682.561, 1680 1682.229 L 1663.500 1681.934 1668.695 1686.509 C 1678.777 1695.389, 1678 1689.679, 1678 1754.918 C 1678 1802.042, 1677.753 1812.577, 1676.597 1814.813 C 1675.825 1816.306, 1672.726 1819.860, 1669.711 1822.712 C 1666.696 1825.563, 1664.478 1828.145, 1664.781 1828.448 C 1665.745 1829.411, 1730 1829.057, 1730 1828.089 C 1730 1827.588, 1728.537 1825.967, 1726.750 1824.488 C 1724.963 1823.008, 1722.037 1819.980, 1720.250 1817.758 L 1717 1813.719 1717.015 1768.609 C 1717.026 1733.216, 1717.335 1722.206, 1718.447 1717.491 C 1721.689 1703.745, 1726.254 1697.528, 1737.070 1692.123 C 1745.334 1687.993, 1750.121 1687.983, 1756.309 1692.081 C 1763.959 1697.148, 1769.805 1706.114, 1771.560 1715.470 C 1771.927 1717.424, 1772.545 1719.219, 1772.934 1719.459 C 1773.323 1719.699, 1778.027 1715.494, 1783.388 1710.113 L 1793.134 1700.329 1786.817 1693.819 C 1774.996 1681.636, 1755.604 1675.804, 1739.166 1679.489 M 2051.105 1679.480 C 2039.680 1682.077, 2032.157 1685.065, 2024.565 1690.021 C 2009.704 1699.722, 1997.668 1714.730, 1992.705 1729.746 C 1980.090 1767.914, 1997.073 1807.848, 2033.207 1824.984 C 2054.474 1835.069, 2080.687 1834.217, 2099.714 1822.821 C 2108.793 1817.383, 2124.245 1801.984, 2129.375 1793.262 C 2129.860 1792.438, 2128.537 1791.268, 2125.418 1789.762 L 2120.733 1787.500 2118.617 1790.387 C 2109.982 1802.166, 2101.915 1809.439, 2092.404 1814.019 C 2084.166 1817.987, 2077.058 1819.358, 2067.965 1818.735 C 2058.523 1818.088, 2052.513 1815.224, 2045.285 1807.927 C 2040.322 1802.916, 2033 1790.881, 2033 1787.733 C 2033 1786.714, 2034.577 1786.048, 2038.096 1785.582 C 2040.899 1785.210, 2049.337 1783.359, 2056.846 1781.470 C 2075.435 1776.792, 2096.058 1766.813, 2103.565 1758.864 C 2113.012 1748.860, 2117 1738.956, 2117 1725.500 C 2117 1712.398, 2113.047 1701.952, 2105.072 1693.977 C 2098.926 1687.831, 2094.155 1684.877, 2084.968 1681.529 C 2075.646 1678.132, 2060.946 1677.242, 2051.105 1679.480 M 1328.500 1691.358 C 1311.131 1699.482, 1300.620 1730.015, 1303.148 1765 C 1304.998 1790.595, 1316.010 1813.136, 1329.601 1819.148 C 1335.837 1821.906, 1340.969 1821.739, 1347.453 1818.567 C 1353.293 1815.710, 1356.778 1812.196, 1360.298 1805.616 C 1362.432 1801.627, 1362.509 1800.394, 1362.798 1765.562 C 1362.981 1743.423, 1362.684 1726.913, 1362.022 1722.562 C 1359.643 1706.909, 1354.695 1697.299, 1346.263 1691.952 C 1340.497 1688.295, 1335.412 1688.125, 1328.500 1691.358 M 1908.500 1690.659 C 1901.085 1694.561, 1896.394 1701.271, 1892.880 1713 C 1890.747 1720.120, 1890.613 1722.532, 1890.246 1760.653 C 1889.870 1799.720, 1889.916 1800.915, 1891.936 1804.875 C 1896.702 1814.217, 1906.698 1821.295, 1914.964 1821.181 C 1930.303 1820.969, 1944.715 1800.508, 1949.056 1772.778 C 1950.878 1761.141, 1949.781 1735.639, 1947.023 1725.500 C 1943.638 1713.059, 1937.713 1701.853, 1931.537 1696.208 C 1923.969 1689.291, 1915.140 1687.165, 1908.500 1690.659 M 2058.174 1690.040 C 2052.417 1691.213, 2045.327 1696.446, 2040.873 1702.807 C 2033.876 1712.803, 2026.989 1739.258, 2027.026 1756 C 2027.041 1762.884, 2028.498 1774.831, 2029.437 1775.770 C 2030.554 1776.888, 2042.736 1772.795, 2052.500 1768.022 C 2071.458 1758.753, 2082.283 1746.277, 2085.776 1729.669 C 2086.848 1724.573, 2085.919 1713.440, 2083.886 1707.005 C 2079.782 1694.018, 2070.077 1687.615, 2058.174 1690.040 M 1282.093 1853.547 L 1279.020 1857.046 1282.260 1859.952 L 1285.500 1862.857 1287.842 1860.678 C 1292.063 1856.752, 1292.158 1855.626, 1288.514 1852.718 L 1285.166 1850.047 1282.093 1853.547 M 1747.604 1853.627 L 1744.707 1857.110 1748.104 1860.020 L 1751.500 1862.930 1754.850 1859.371 L 1758.199 1855.812 1754.850 1852.947 C 1753.007 1851.371, 1751.275 1850.095, 1751 1850.113 C 1750.725 1850.130, 1749.197 1851.712, 1747.604 1853.627 M 1935.604 1853.627 L 1932.707 1857.110 1936.104 1860.021 L 1939.500 1862.932 1942.621 1859.322 L 1945.742 1855.712 1942.489 1852.856 C 1940.700 1851.285, 1939.070 1850.032, 1938.868 1850.072 C 1938.666 1850.112, 1937.197 1851.712, 1935.604 1853.627 M 1367.500 1852.525 C 1366.950 1852.727, 1364.572 1853.388, 1362.215 1853.994 L 1357.930 1855.096 1359.965 1857.683 C 1362.718 1861.183, 1362.939 1870.414, 1360.250 1869.615 C 1351.953 1867.150, 1346.476 1868.386, 1342.084 1873.714 C 1338.581 1877.964, 1336.555 1886.020, 1337.565 1891.685 C 1339.677 1903.541, 1348.742 1908.975, 1358.289 1904.108 C 1361.220 1902.613, 1362 1902.508, 1362 1903.608 C 1362 1904.643, 1363.540 1905, 1368 1905 C 1371.300 1905, 1373.990 1904.662, 1373.978 1904.250 C 1373.966 1903.838, 1373.076 1902.375, 1372 1901 C 1370.189 1898.684, 1370.043 1896.786, 1370.022 1875.250 C 1370.010 1862.463, 1369.662 1852.036, 1369.250 1852.079 C 1368.838 1852.122, 1368.050 1852.323, 1367.500 1852.525 M 1960.500 1852.525 C 1959.950 1852.727, 1957.572 1853.388, 1955.215 1853.994 L 1950.930 1855.096 1952.965 1857.683 C 1954.877 1860.113, 1955 1861.653, 1955 1883.135 C 1955 1895.711, 1955.350 1906, 1955.777 1906 C 1956.205 1906, 1957.478 1905.353, 1958.607 1904.563 C 1960.401 1903.306, 1961.217 1903.326, 1965.091 1904.719 C 1971.112 1906.884, 1976.078 1905.828, 1981.068 1901.320 C 1990.931 1892.409, 1989.584 1874.984, 1978.615 1869.609 C 1974.776 1867.729, 1970.630 1867.987, 1964.750 1870.474 C 1963.153 1871.149, 1963 1870.372, 1963 1861.607 C 1963 1856.323, 1962.662 1852.036, 1962.250 1852.079 C 1961.838 1852.122, 1961.050 1852.323, 1960.500 1852.525 M 1237.826 1857.314 C 1239.908 1859.531, 1240 1860.471, 1240 1879.623 C 1240 1895.656, 1239.709 1900.002, 1238.532 1901.559 C 1237.724 1902.626, 1237.049 1903.838, 1237.032 1904.250 C 1237.014 1904.662, 1240.631 1905, 1245.068 1905 L 1253.136 1905 1251.068 1902.096 C 1249.414 1899.772, 1249 1897.672, 1249 1891.596 L 1249 1884 1255.250 1883.991 C 1261.086 1883.983, 1261.680 1884.198, 1264.223 1887.241 L 1266.946 1890.500 1266.962 1881 L 1266.978 1871.500 1264.416 1874.750 C 1262.002 1877.814, 1261.487 1878, 1255.428 1878 L 1249 1878 1249 1869.500 L 1249 1861 1258.423 1861 L 1267.846 1861 1271.423 1866.719 L 1275 1872.437 1275 1863.719 L 1275 1855 1255.326 1855 L 1235.651 1855 1237.826 1857.314 M 1389 1855.621 C 1389 1855.963, 1393.050 1862.707, 1398 1870.608 L 1407 1884.974 1407 1892.296 C 1407 1897.186, 1406.512 1900.263, 1405.532 1901.559 C 1404.724 1902.626, 1404.049 1903.838, 1404.032 1904.250 C 1404.014 1904.662, 1407.600 1905, 1412 1905 C 1416.400 1905, 1420 1904.620, 1420 1904.155 C 1420 1903.690, 1419.100 1902.495, 1418 1901.500 C 1416.319 1899.979, 1416 1898.420, 1416 1891.739 L 1416 1883.788 1422.645 1872.644 C 1426.300 1866.515, 1430.663 1860.037, 1432.341 1858.250 L 1435.392 1855 1428.196 1855 C 1420.985 1855, 1419.700 1855.677, 1422.500 1858 C 1423.325 1858.685, 1424 1859.630, 1424 1860.100 C 1424 1861.195, 1413.665 1877.986, 1413 1877.972 C 1412.266 1877.956, 1402 1861.404, 1402 1860.237 C 1402 1859.691, 1402.675 1858.685, 1403.500 1858 C 1406.349 1855.636, 1404.971 1855, 1397 1855 C 1392.600 1855, 1389 1855.280, 1389 1855.621 M 1558.927 1857.635 C 1560.865 1860.098, 1561 1861.554, 1561 1879.944 C 1561 1895.694, 1560.707 1900.005, 1559.532 1901.559 C 1558.724 1902.626, 1558.049 1903.838, 1558.032 1904.250 C 1558.014 1904.662, 1566.325 1905, 1576.500 1905 L 1595 1905 1595 1897.559 C 1595 1893.466, 1594.631 1889.890, 1594.180 1889.611 C 1593.729 1889.332, 1592.059 1891.331, 1590.470 1894.052 L 1587.580 1899 1578.790 1899 L 1570 1899 1570 1879.805 L 1570 1860.609 1572.687 1857.805 L 1575.374 1855 1566.115 1855 L 1556.855 1855 1558.927 1857.635 M 1863 1863 C 1863 1867.400, 1863.158 1871, 1863.351 1871 C 1863.543 1871, 1865.100 1868.750, 1866.809 1866 C 1869.799 1861.190, 1870.090 1861, 1874.459 1861 L 1879 1861 1879 1880.309 C 1879 1895.738, 1878.705 1900.008, 1877.532 1901.559 C 1876.724 1902.626, 1876.049 1903.838, 1876.032 1904.250 C 1876.014 1904.662, 1879.631 1905, 1884.068 1905 L 1892.136 1905 1890.068 1902.096 C 1888.151 1899.403, 1888 1897.798, 1888 1880.096 L 1888 1861 1892.487 1861 C 1896.687 1861, 1897.144 1861.273, 1899.610 1865.250 C 1901.059 1867.588, 1903.540 1870.545, 1905.123 1871.822 L 1908 1874.145 1908 1886.668 C 1908 1897.726, 1907.758 1899.531, 1905.932 1902.096 L 1903.864 1905 1911.932 1905 C 1916.369 1905, 1920 1904.620, 1920 1904.155 C 1920 1903.690, 1919.100 1902.495, 1918 1901.500 C 1916.190 1899.862, 1916 1898.420, 1916 1886.345 L 1916 1873 1919.208 1873 C 1921.550 1873, 1923.425 1873.986, 1926.155 1876.652 L 1929.895 1880.303 1931.066 1875.652 C 1931.710 1873.093, 1932.618 1871, 1933.084 1871 C 1935.142 1871, 1936 1875.714, 1936 1887.027 C 1936 1897.865, 1935.772 1899.473, 1933.901 1901.842 L 1931.802 1904.500 1935.901 1904.807 C 1938.155 1904.977, 1941.845 1904.977, 1944.099 1904.807 L 1948.198 1904.500 1946.099 1901.842 C 1944.158 1899.385, 1944 1897.935, 1944 1882.592 C 1944 1873.467, 1943.832 1866, 1943.626 1866 C 1943.420 1866, 1941.507 1866.566, 1939.376 1867.257 C 1936.729 1868.116, 1930.506 1868.410, 1919.750 1868.187 L 1904 1867.859 1904 1861.430 L 1904 1855 1883.500 1855 L 1863 1855 1863 1863 M 1284 1867.716 C 1278.323 1869.681, 1278.506 1869.456, 1280.398 1872.158 C 1281.658 1873.956, 1282 1877.088, 1282 1886.818 C 1282 1897.724, 1281.755 1899.536, 1279.932 1902.096 L 1277.864 1905 1294.467 1905 C 1310.602 1905, 1311.041 1904.945, 1310.030 1903.056 C 1309.457 1901.986, 1308.542 1900.835, 1307.995 1900.497 C 1307.429 1900.147, 1307 1894.957, 1307 1888.467 L 1307 1877.051 1309.950 1875.526 C 1313.983 1873.441, 1317.612 1873.612, 1320 1876 C 1321.753 1877.753, 1322 1879.333, 1322 1888.809 C 1322 1896.765, 1321.612 1900.130, 1320.532 1901.559 C 1319.724 1902.626, 1319.049 1903.838, 1319.032 1904.250 C 1319.014 1904.662, 1322.406 1905, 1326.568 1905 L 1334.136 1905 1332.160 1902.224 C 1330.523 1899.926, 1330.124 1897.442, 1329.842 1887.794 C 1329.551 1877.869, 1329.190 1875.721, 1327.410 1873.320 C 1323.324 1867.806, 1317.898 1866.997, 1308.750 1870.537 C 1307.351 1871.078, 1307 1870.678, 1307 1868.540 C 1307 1865.622, 1306.438 1865.628, 1299.133 1868.617 C 1295.837 1869.967, 1295.801 1870.047, 1297.383 1872.462 C 1298.653 1874.400, 1299 1877.596, 1299 1887.354 C 1299 1898.106, 1298.742 1900.096, 1297.085 1902.139 L 1295.170 1904.500 1292.585 1902.076 C 1290.003 1899.655, 1290 1899.629, 1290 1882.826 C 1290 1873.572, 1289.662 1866.036, 1289.250 1866.079 C 1288.838 1866.122, 1286.475 1866.859, 1284 1867.716 M 1711 1867.157 C 1709.581 1867.741, 1701.471 1868.125, 1692.250 1868.044 C 1683.313 1867.965, 1676.010 1868.261, 1676.022 1868.700 C 1676.034 1869.140, 1676.924 1870.625, 1678 1872 C 1679.697 1874.169, 1679.958 1876.133, 1679.978 1886.846 C 1679.997 1897.745, 1679.758 1899.531, 1677.932 1902.096 L 1675.864 1905 1683.932 1905 C 1688.369 1905, 1692 1904.620, 1692 1904.155 C 1692 1903.690, 1691.100 1902.495, 1690 1901.500 C 1688.190 1899.862, 1688 1898.420, 1688 1886.345 L 1688 1873 1691.208 1873 C 1693.547 1873, 1695.423 1873.984, 1698.134 1876.631 L 1701.852 1880.262 1702.985 1876.057 C 1703.926 1872.561, 1704.360 1872.054, 1705.558 1873.049 C 1707.751 1874.868, 1707.618 1898.672, 1705.398 1901.842 C 1704.517 1903.100, 1704.013 1904.346, 1704.278 1904.611 C 1704.542 1904.876, 1708.006 1904.959, 1711.975 1904.796 L 1719.191 1904.500 1717.095 1901.842 C 1715.255 1899.507, 1715 1897.840, 1715 1888.118 L 1715 1877.051 1717.950 1875.526 C 1722.333 1873.259, 1725.554 1873.618, 1727.927 1876.635 C 1729.716 1878.908, 1730 1880.665, 1730 1889.444 C 1730 1896.841, 1729.599 1900.147, 1728.532 1901.559 C 1727.724 1902.626, 1727.049 1903.838, 1727.032 1904.250 C 1727.014 1904.662, 1730.150 1905, 1734 1905 C 1737.850 1905, 1740.986 1904.662, 1740.968 1904.250 C 1740.951 1903.838, 1740.276 1902.626, 1739.468 1901.559 C 1738.399 1900.145, 1738 1896.833, 1738 1889.374 C 1738 1883.740, 1737.520 1877.863, 1736.933 1876.315 C 1734.222 1869.159, 1728.301 1866.687, 1720.355 1869.395 C 1717.764 1870.278, 1715.499 1871, 1715.322 1871 C 1715.145 1871, 1715 1869.875, 1715 1868.500 C 1715 1865.754, 1714.672 1865.644, 1711 1867.157 M 1750 1867.716 C 1744.323 1869.681, 1744.506 1869.456, 1746.398 1872.158 C 1747.658 1873.956, 1748 1877.088, 1748 1886.815 C 1748 1897.859, 1747.775 1899.469, 1745.905 1901.842 L 1743.811 1904.500 1751.856 1904.790 C 1756.281 1904.949, 1763.791 1904.949, 1768.545 1904.790 L 1777.189 1904.500 1775.094 1901.842 C 1773.255 1899.508, 1773 1897.838, 1773 1888.118 L 1773 1877.051 1775.950 1875.526 C 1781.069 1872.879, 1784.699 1873.598, 1786.850 1877.684 C 1788.593 1880.995, 1788.351 1899.154, 1786.532 1901.559 C 1785.724 1902.626, 1785.049 1903.838, 1785.032 1904.250 C 1785.014 1904.662, 1788.408 1905, 1792.573 1905 L 1800.145 1905 1798.073 1902.365 C 1796.280 1900.087, 1796 1898.336, 1796 1889.430 C 1796 1883.765, 1795.520 1877.863, 1794.933 1876.315 C 1792.222 1869.159, 1786.301 1866.687, 1778.355 1869.395 C 1775.764 1870.278, 1773.499 1871, 1773.322 1871 C 1773.145 1871, 1773 1869.827, 1773 1868.393 C 1773 1866.573, 1772.579 1865.948, 1771.604 1866.322 C 1770.836 1866.616, 1768.361 1867.411, 1766.104 1868.087 C 1761.547 1869.452, 1761.359 1869.771, 1763.468 1872.559 C 1764.575 1874.022, 1764.944 1877.613, 1764.968 1887.139 C 1764.996 1898.132, 1764.751 1900.086, 1763.085 1902.139 L 1761.170 1904.500 1758.585 1902.076 C 1756.003 1899.655, 1756 1899.629, 1756 1882.826 C 1756 1873.572, 1755.662 1866.036, 1755.250 1866.079 C 1754.838 1866.122, 1752.475 1866.859, 1750 1867.716 M 1840.906 1869.005 L 1837.312 1871.944 1833.527 1870.014 C 1827.774 1867.081, 1822.020 1866.562, 1815.683 1868.404 C 1806.056 1871.202, 1801.865 1879.623, 1805.534 1888.795 C 1806.964 1892.368, 1807.032 1893.508, 1805.970 1896.074 C 1804.850 1898.776, 1804.953 1899.446, 1806.895 1902.071 L 1809.080 1905.027 1806.539 1907.264 C 1805.141 1908.494, 1803.721 1910.944, 1803.382 1912.710 C 1802.165 1919.052, 1810.314 1923.989, 1822 1923.989 C 1829.707 1923.989, 1834.597 1922.396, 1838.844 1918.504 C 1842.013 1915.600, 1842.500 1914.555, 1842.500 1910.657 C 1842.500 1907.300, 1841.898 1905.520, 1840.124 1903.632 C 1837.464 1900.800, 1836.027 1900.393, 1824.150 1899.105 C 1819.557 1898.607, 1815.380 1897.780, 1814.866 1897.266 C 1814.322 1896.722, 1816.041 1896.765, 1818.987 1897.368 C 1831.869 1900.007, 1842.437 1891.463, 1840.496 1879.979 C 1839.833 1876.054, 1839.866 1876, 1842.912 1876 C 1845.951 1876, 1846 1875.921, 1846 1871 C 1846 1868.250, 1845.662 1866.015, 1845.250 1866.034 C 1844.838 1866.052, 1842.883 1867.389, 1840.906 1869.005 M 1445 1867.588 C 1437.704 1870.254, 1435.685 1871.680, 1433.186 1875.931 C 1428.577 1883.772, 1429.842 1895.927, 1435.831 1901.347 C 1443.765 1908.528, 1459.957 1906.808, 1465.692 1898.177 C 1471.696 1889.139, 1468.973 1874.808, 1460.288 1869.736 C 1457.076 1867.860, 1447.815 1866.559, 1445 1867.588 M 1611.655 1868.459 C 1606.052 1870.456, 1603.147 1873.687, 1601.320 1879.954 C 1598.361 1890.097, 1602.231 1900.384, 1610.401 1904.095 C 1617.310 1907.232, 1625.243 1905.939, 1630.736 1900.778 C 1635.326 1896.466, 1632.691 1893.609, 1627.661 1897.445 C 1624.063 1900.190, 1617.572 1900.912, 1613.945 1898.970 C 1612.042 1897.952, 1609 1893.079, 1609 1891.050 C 1609 1890.373, 1613.439 1890, 1621.500 1890 L 1634 1890 1633.998 1884.250 C 1633.996 1876.459, 1631.681 1872.096, 1626.038 1869.250 C 1620.967 1866.693, 1617.191 1866.485, 1611.655 1868.459 M 2003.684 1868.449 C 1995.958 1871.204, 1992.678 1876.385, 1992.572 1886 C 1992.426 1899.237, 2001.537 1907.810, 2013.388 1905.587 C 2019.693 1904.404, 2026.680 1898.280, 2024.365 1895.965 C 2023.577 1895.177, 2022.224 1895.587, 2019.498 1897.437 C 2012.284 1902.332, 2003.122 1899.956, 2001.429 1892.750 L 2000.783 1890 2013.392 1890 L 2026 1890 2025.998 1884.250 C 2025.996 1876.459, 2023.681 1872.096, 2018.038 1869.250 C 2012.974 1866.696, 2009.190 1866.485, 2003.684 1868.449 M 1473.932 1870.904 C 1475.709 1873.400, 1476 1875.296, 1476 1884.384 C 1476 1891.810, 1476.484 1896.168, 1477.624 1899.018 C 1480.435 1906.043, 1487.751 1908.015, 1494.360 1903.530 C 1497.812 1901.188, 1498 1901.162, 1498 1903.030 C 1498 1904.774, 1498.698 1905, 1504.068 1905 L 1510.136 1905 1508.068 1902.096 C 1506.190 1899.458, 1506 1897.760, 1506 1883.596 L 1506 1868 1499.932 1868 L 1493.864 1868 1495.932 1870.904 C 1497.708 1873.398, 1498 1875.296, 1498 1884.332 C 1498 1894.509, 1497.913 1894.923, 1495.365 1896.927 C 1491.949 1899.615, 1486.439 1899.688, 1485.035 1897.066 C 1484.466 1896.002, 1484 1890.334, 1484 1884.470 C 1484 1875.295, 1484.288 1873.404, 1486.068 1870.904 L 1488.136 1868 1480 1868 L 1471.864 1868 1473.932 1870.904 M 1512.022 1868.750 C 1512.034 1869.162, 1512.924 1870.625, 1514 1872 C 1515.702 1874.176, 1515.958 1876.135, 1515.978 1887.115 C 1515.998 1898.383, 1515.779 1900.012, 1513.927 1902.365 L 1511.855 1905 1520.615 1905 L 1529.374 1905 1526.687 1902.195 C 1524.048 1899.441, 1524 1899.153, 1524 1886.195 L 1524 1873 1527.304 1873 C 1529.760 1873, 1531.469 1873.888, 1533.962 1876.461 C 1535.807 1878.365, 1537.636 1879.725, 1538.027 1879.483 C 1538.418 1879.242, 1539.020 1877.274, 1539.366 1875.110 C 1539.713 1872.945, 1540.270 1870.461, 1540.605 1869.587 C 1541.144 1868.182, 1539.538 1868, 1526.607 1868 C 1518.573 1868, 1512.010 1868.338, 1512.022 1868.750 M 1639.283 1869.250 C 1642.485 1877.305, 1644.590 1881.996, 1645 1881.991 C 1645.275 1881.987, 1646.526 1880.188, 1647.780 1877.992 C 1650.005 1874.096, 1650.192 1874, 1655.561 1874 C 1659.658 1874, 1661.218 1874.404, 1661.670 1875.583 C 1662.583 1877.963, 1659.336 1880.434, 1651.394 1883.406 C 1643.286 1886.440, 1640.140 1889.249, 1639.413 1894.107 C 1637.941 1903.932, 1649.844 1908.735, 1659.685 1902.287 C 1661.853 1900.866, 1662 1900.904, 1662 1902.885 C 1662 1904.806, 1662.557 1905, 1668.068 1905 L 1674.136 1905 1672.019 1902.027 C 1670.045 1899.255, 1669.922 1898, 1670.201 1883.525 L 1670.500 1867.997 1654.643 1867.999 C 1642.360 1868, 1638.898 1868.282, 1639.283 1869.250 M 1442.917 1875.782 C 1440.529 1877.916, 1439.681 1879.650, 1439.279 1883.220 C 1438.082 1893.838, 1441.902 1900, 1449.682 1900 C 1457.337 1900, 1460.935 1893.986, 1459.721 1883.220 C 1459.054 1877.298, 1454.755 1873, 1449.500 1873 C 1447.119 1873, 1445.055 1873.873, 1442.917 1875.782 M 1613.127 1875.096 C 1611.017 1877.063, 1609 1880.956, 1609 1883.065 C 1609 1883.579, 1612.884 1884, 1617.631 1884 L 1626.262 1884 1625.674 1880.376 C 1625.350 1878.383, 1624.322 1875.908, 1623.388 1874.876 C 1621.103 1872.351, 1615.955 1872.462, 1613.127 1875.096 M 1815.923 1875.923 C 1813.759 1878.087, 1813 1879.795, 1813 1882.500 C 1813 1890.713, 1823.785 1895.306, 1829.545 1889.545 C 1835.306 1883.785, 1830.713 1873, 1822.500 1873 C 1819.795 1873, 1818.087 1873.759, 1815.923 1875.923 M 2004.960 1875.040 C 2003.014 1876.986, 2001 1881.068, 2001 1883.065 C 2001 1883.579, 2004.884 1884, 2009.631 1884 L 2018.262 1884 2017.674 1880.376 C 2017.350 1878.383, 2016.322 1875.908, 2015.388 1874.876 C 2013.089 1872.335, 2007.578 1872.422, 2004.960 1875.040 M 1349.545 1876.953 C 1346.542 1880.087, 1345.093 1887.248, 1346.403 1892.471 C 1348.007 1898.861, 1355.555 1901.231, 1359.826 1896.686 C 1361.719 1894.670, 1362 1893.231, 1362 1885.546 C 1362 1878.313, 1361.684 1876.481, 1360.250 1875.392 C 1357.172 1873.055, 1352.647 1873.715, 1349.545 1876.953 M 1965.070 1875.750 C 1963.069 1877.378, 1962.940 1878.266, 1963.210 1888.500 L 1963.500 1899.500 1966.888 1899.824 C 1972.161 1900.327, 1974.894 1899.222, 1977.027 1895.723 C 1980.624 1889.825, 1978.925 1877.636, 1974.150 1875.080 C 1971.182 1873.492, 1967.514 1873.762, 1965.070 1875.750 M 1655 1887.761 C 1649.831 1890.766, 1648.435 1892.097, 1648.184 1894.261 C 1647.754 1897.976, 1651.550 1899.843, 1655.883 1898.049 C 1660.739 1896.037, 1662.156 1893.777, 1661.809 1888.597 L 1661.500 1883.982 1655 1887.761 M 1812.669 1907.813 C 1808.317 1912.622, 1813.317 1918.134, 1822.097 1918.205 C 1829.631 1918.265, 1835 1915.891, 1835 1912.500 C 1835 1909.170, 1831.081 1907.425, 1821.481 1906.479 C 1815.243 1905.864, 1814.304 1906.006, 1812.669 1907.813" stroke="none" fill="#102e4a" fill-rule="evenodd"/>
</svg>